<?xml version="1.0" encoding="utf-8"?>
<!-- Generator: Adobe Illustrator 25.2.3, SVG Export Plug-In . SVG Version: 6.00 Build 0)  -->
<svg version="1.2" baseProfile="tiny" id="circle" xmlns="http://www.w3.org/2000/svg" xmlns:xlink="http://www.w3.org/1999/xlink"
	 x="0px" y="0px" viewBox="0 0 70 70" overflow="visible" xml:space="preserve">
<path id="circle77" d="M20.55,5.79c0.71,1.18,0.32,2.71-0.87,3.41l-0.01,0.01l-0.01,0c-3.03,1.79-5.79,4.17-8.12,7.08
	s-4.03,6.14-5.1,9.49l0,0.01l-0.01,0.01c-0.42,1.31-1.83,2.03-3.14,1.61c-1.32-0.43-2.04-1.83-1.62-3.15
	c1.26-3.92,3.23-7.68,5.95-11.09s5.94-6.17,9.49-8.27C18.31,4.2,19.84,4.59,20.55,5.79z"/>
<path id="circle75" d="M9.74,55.59c0.99-0.95,2.57-0.91,3.52,0.09l0.01,0l0,0.01c2.42,2.55,5.35,4.72,8.71,6.34
	s6.88,2.56,10.39,2.86l0.01,0l0.01,0c1.37,0.12,2.39,1.33,2.26,2.7c-0.12,1.38-1.33,2.4-2.71,2.28c-4.1-0.35-8.21-1.44-12.13-3.34
	c-3.93-1.89-7.34-4.42-10.17-7.41C8.69,58.13,8.73,56.55,9.74,55.59z"/>
<path id="circle74" d="M35.34,67.59c-0.13-1.37,0.89-2.58,2.26-2.7l0.01,0l0.01,0c3.51-0.3,7.03-1.24,10.39-2.86
	s6.29-3.78,8.71-6.34l0-0.01l0.01,0c0.95-1,2.53-1.04,3.52-0.09c1.01,0.96,1.04,2.54,0.1,3.54c-2.84,2.99-6.25,5.52-10.17,7.41
	c-3.93,1.89-8.03,2.98-12.13,3.34C36.67,69.99,35.46,68.97,35.34,67.59z"/>
<path id="circle73" d="M60.69,55.05c-1.15-0.76-1.46-2.3-0.7-3.45l0-0.01l0.01-0.01c1.95-2.93,3.41-6.27,4.24-9.9
	c0.83-3.64,0.96-7.28,0.48-10.76l-0.01-0.01l0-0.01c-0.19-1.37,0.76-2.63,2.13-2.81c1.38-0.19,2.64,0.77,2.83,2.13
	c0.57,4.08,0.42,8.32-0.55,12.57s-2.68,8.14-4.96,11.57C63.4,55.5,61.85,55.82,60.69,55.05z"/>
<path id="circle72" fill="#F9B233" d="M66.69,27.41c-1.31,0.43-2.71-0.29-3.14-1.61l-0.01-0.01l0-0.01
	c-1.07-3.35-2.77-6.57-5.1-9.49c-2.33-2.92-5.09-5.29-8.12-7.08l-0.01,0L50.31,9.2c-1.19-0.7-1.58-2.23-0.87-3.41
	c0.71-1.19,2.24-1.58,3.43-0.88c3.54,2.1,6.77,4.86,9.49,8.27c2.72,3.41,4.69,7.17,5.95,11.09C68.73,25.58,68.01,26.98,66.69,27.41z
	"/>
<path id="circle71" fill="#F9B233" d="M48.83,5.49c-0.48,1.29-1.92,1.94-3.21,1.45h-0.01L45.6,6.93C42.31,5.68,38.73,5,35,5
	s-7.31,0.68-10.6,1.93l-0.01,0.01h-0.01c-1.29,0.49-2.73-0.16-3.21-1.45c-0.49-1.3,0.16-2.74,1.45-3.23C26.47,0.8,30.64,0,35,0
	s8.53,0.8,12.38,2.26C48.67,2.75,49.32,4.19,48.83,5.49z"/>
<path id="circle76" d="M3.15,28.08c1.36,0.18,2.32,1.44,2.13,2.81l0,0.01l-0.01,0.01c-0.49,3.49-0.35,7.13,0.48,10.76
	c0.83,3.64,2.29,6.98,4.24,9.9L10,51.59l0,0.01c0.76,1.15,0.45,2.7-0.7,3.45c-1.16,0.77-2.71,0.45-3.47-0.69
	c-2.28-3.43-3.99-7.32-4.96-11.57s-1.12-8.49-0.55-12.57C0.52,28.85,1.78,27.9,3.15,28.08z"/>
</svg>
