<?xml version="1.0" encoding="utf-8"?>
<!-- Generator: Adobe Illustrator 25.2.3, SVG Export Plug-In . SVG Version: 6.00 Build 0)  -->
<svg version="1.2" baseProfile="tiny" id="circle" xmlns="http://www.w3.org/2000/svg" xmlns:xlink="http://www.w3.org/1999/xlink"
	 x="0px" y="0px" viewBox="0 0 70 70" overflow="visible" xml:space="preserve">
<path id="circle55" d="M15.11,9.17c0.92,1.03,0.85,2.59-0.17,3.52c0,0.01-0.01,0.01-0.02,0.02c-0.03,0.02-0.06,0.04-0.08,0.07
	C7.21,19.71,3.35,30.41,5.66,41.24c0.29,1.35-0.57,2.67-1.93,2.97c-1.34,0.29-2.67-0.57-2.96-1.93c-2.7-12.66,1.84-25.17,10.8-33.27
	c0-0.01,0.01-0.01,0.02-0.02c0-0.01,0.01-0.01,0.02-0.02C12.63,8.07,14.2,8.15,15.11,9.17z"/>
<path id="circle54" d="M4.29,45.93c1.27-0.55,2.73-0.01,3.3,1.25c0.01,0.01,0,0.01,0.01,0.02c0.01,0.03,0.03,0.07,0.04,0.1
	c4.24,9.41,13.22,16.38,24.23,17.53c1.38,0.15,2.36,1.37,2.23,2.75c-0.14,1.37-1.37,2.36-2.75,2.22
	c-12.88-1.35-23.37-9.53-28.3-20.55c-0.01-0.01,0-0.01-0.01-0.02c-0.01-0.01,0-0.01-0.01-0.02C2.47,47.95,3.04,46.48,4.29,45.93z"/>
<path id="circle53" d="M35.91,67.58c-0.13-1.37,0.83-2.6,2.2-2.75c0.01-0.01,0.01,0,0.02,0c0.04,0,0.07,0,0.11,0
	C48.5,63.7,57.9,57.31,62.4,47.2c0.57-1.26,2.04-1.83,3.31-1.27c1.26,0.56,1.83,2.04,1.26,3.3C61.71,61.06,50.68,68.51,38.68,69.8
	c-0.01,0.01-0.01,0-0.02,0c-0.01,0.01-0.01,0-0.02,0C37.27,69.93,36.04,68.94,35.91,67.58z"/>
<path id="circle52" fill="#F9B233" d="M66.28,44.21c-1.35-0.3-2.21-1.59-1.94-2.95c0-0.01,0.01-0.01,0-0.02
	c0.01-0.03,0.02-0.07,0.03-0.1c2.1-10.1-1.07-21.02-9.3-28.43c-1.03-0.93-1.11-2.5-0.18-3.54c0.92-1.02,2.5-1.11,3.53-0.18
	c9.63,8.66,13.31,21.45,10.82,33.26c0,0.01-0.01,0.01,0,0.02c0,0.01-0.01,0.01,0,0.02C68.93,43.64,67.61,44.5,66.28,44.21z"/>
<path id="circle51" fill="#F9B233" d="M53.42,8.1c-0.7,1.19-2.2,1.61-3.4,0.93c-0.01,0-0.01-0.01-0.02-0.01
	C49.97,9,49.94,8.98,49.91,8.96C40.95,3.84,29.59,3.48,20,9.02c-1.2,0.69-2.72,0.28-3.42-0.92c-0.69-1.19-0.28-2.72,0.92-3.41
	c11.21-6.48,24.51-6.03,34.98-0.01c0.01,0,0.01,0.01,0.02,0.01s0.01,0.01,0.02,0.01C53.7,5.4,54.11,6.92,53.42,8.1z"/>
</svg>
