<?xml version="1.0" encoding="utf-8"?>
<!-- Generator: Adobe Illustrator 25.2.3, SVG Export Plug-In . SVG Version: 6.00 Build 0)  -->
<svg version="1.2" baseProfile="tiny" id="circle" xmlns="http://www.w3.org/2000/svg" xmlns:xlink="http://www.w3.org/1999/xlink"
	 x="0px" y="0px" viewBox="0 0 70 70" overflow="visible" xml:space="preserve">
<path id="circle44" d="M33.24,2.45c0.18,1.37-0.79,2.63-2.16,2.81C17.65,7.01,7.01,17.65,5.26,31.08c-0.18,1.37-1.44,2.34-2.81,2.16
	c-1.37-0.18-2.33-1.44-2.15-2.81c0.01-0.08,0.02-0.16,0.04-0.23C2.46,14.64,14.84,2.33,30.43,0.3C31.8,0.12,33.06,1.08,33.24,2.45z"
	/>
<path id="circle43" d="M33.24,67.55c-0.18,1.37-1.44,2.33-2.81,2.15c-0.08-0.01-0.16-0.02-0.23-0.04
	C14.71,67.55,2.45,55.29,0.34,39.8c-0.02-0.07-0.03-0.15-0.04-0.23c-0.18-1.37,0.78-2.63,2.15-2.81c1.37-0.18,2.63,0.79,2.81,2.16
	c1.75,13.43,12.39,24.07,25.82,25.82C32.45,64.92,33.42,66.18,33.24,67.55z"/>
<path id="circle42" d="M67.55,36.76c1.37,0.18,2.33,1.44,2.15,2.81c-0.01,0.08-0.02,0.16-0.04,0.23
	C67.55,55.29,55.29,67.55,39.8,69.66c-0.07,0.02-0.15,0.03-0.23,0.04c-1.37,0.18-2.63-0.78-2.81-2.15
	c-0.18-1.37,0.79-2.63,2.16-2.81c13.43-1.75,24.07-12.39,25.82-25.82C64.92,37.55,66.18,36.58,67.55,36.76z"/>
<path id="circle41" fill="#F9B233" d="M67.55,33.24c-1.37,0.18-2.63-0.79-2.81-2.16C62.99,17.65,52.35,7.01,38.92,5.26
	c-1.37-0.18-2.34-1.44-2.16-2.81c0.18-1.37,1.44-2.33,2.81-2.15c0.08,0.01,0.16,0.02,0.23,0.04c15.56,2.12,27.87,14.5,29.9,30.09
	C69.88,31.8,68.92,33.06,67.55,33.24z"/>
</svg>
