<?xml version="1.0" encoding="utf-8"?>
<!-- Generator: Adobe Illustrator 25.2.3, SVG Export Plug-In . SVG Version: 6.00 Build 0)  -->
<svg version="1.2" baseProfile="tiny" id="circle" xmlns="http://www.w3.org/2000/svg" xmlns:xlink="http://www.w3.org/1999/xlink"
	 x="0px" y="0px" viewBox="0 0 70 70" overflow="visible" xml:space="preserve">
<path id="circle66" d="M34.66,2.4c0.12,1.36-0.88,2.56-2.25,2.71c-0.01,0-0.02,0-0.04,0c0,0-0.01-0.01-0.01,0
	c-8.52,0.75-16.65,5.12-21.95,12.67c-0.79,1.13-2.35,1.4-3.47,0.62c-1.08-0.75-1.38-2.18-0.74-3.3c0.04-0.06,0.07-0.13,0.12-0.19
	C12.44,6.2,21.81,1.11,31.64,0.18c0.04,0,0.08-0.01,0.11-0.02c0.11-0.02,0.21-0.03,0.32-0.03C33.4,0.08,34.54,1.08,34.66,2.4z"/>
<path id="circle65" d="M6.6,18.99c1.24,0.58,1.78,2.04,1.22,3.3c0,0.01-0.01,0.02-0.02,0.03c0,0-0.01,0.01,0,0.01
	c-3.61,7.75-3.89,16.98,0,25.34c0.58,1.25,0.04,2.73-1.2,3.32c-1.19,0.56-2.58,0.11-3.23-1.01c-0.04-0.06-0.07-0.13-0.1-0.2
	c-4.5-9.65-4.22-20.31-0.11-29.3c0.02-0.03,0.03-0.07,0.04-0.11c0.04-0.11,0.08-0.2,0.14-0.29C3.96,18.92,5.39,18.44,6.6,18.99z"/>
<path id="circle64" d="M34.66,67.59c-0.11,1.31-1.2,2.29-2.49,2.29c-0.07,0-0.15,0-0.22-0.01c-10.61-0.93-19.7-6.5-25.43-14.55
	c-0.02-0.03-0.05-0.06-0.07-0.09c-0.07-0.09-0.13-0.17-0.18-0.26c-0.02-0.01-0.03-0.03-0.04-0.05c-0.66-1.12-0.37-2.57,0.71-3.33
	c1.11-0.78,2.64-0.52,3.45,0.57c0.02,0.02,0.03,0.03,0.04,0.05c0.01,0.01,0.02,0.03,0.02,0.04c4.92,6.99,12.77,11.83,21.94,12.64
	C33.76,65.01,34.78,66.22,34.66,67.59z"/>
<path id="circle63" d="M63.05,51.59c1.08,0.75,1.38,2.18,0.74,3.3c-0.04,0.06-0.07,0.13-0.12,0.19
	c-6.11,8.72-15.48,13.81-25.32,14.75c-0.04,0-0.08,0.01-0.11,0.02c-0.11,0.02-0.21,0.03-0.32,0.03c-0.02,0.01-0.04,0.01-0.06,0.01
	c-1.3,0.01-2.41-0.96-2.53-2.28c-0.12-1.35,0.87-2.55,2.22-2.7c0.03-0.01,0.04-0.01,0.06-0.01c0.01,0,0.04,0,0.04,0
	c8.51-0.77,16.63-5.14,21.92-12.68C60.37,51.08,61.93,50.8,63.05,51.59z"/>
<path id="circle62" fill="#F9B233" d="M63.39,19c1.19-0.56,2.58-0.11,3.23,1.01c0.04,0.06,0.07,0.13,0.1,0.2
	c4.5,9.65,4.22,20.31,0.11,29.3c-0.02,0.03-0.03,0.07-0.04,0.11c-0.04,0.11-0.08,0.2-0.14,0.29c0,0.02-0.01,0.04-0.02,0.06
	c-0.64,1.13-2.04,1.61-3.24,1.05c-1.23-0.57-1.77-2.03-1.23-3.27c0.01-0.03,0.01-0.04,0.02-0.06c0-0.01,0.02-0.03,0.02-0.04
	c3.59-7.76,3.86-16.97-0.02-25.32C61.61,21.07,62.15,19.58,63.39,19z"/>
<path id="circle61" fill="#F9B233" d="M63.06,18.41c-1.12,0.78-2.66,0.52-3.47-0.59c-0.01-0.01-0.01-0.02-0.02-0.03
	c0,0,0-0.01-0.01-0.01c-4.91-7-12.76-11.86-21.95-12.67c-1.37-0.12-2.39-1.33-2.27-2.7c0.11-1.31,1.2-2.29,2.49-2.29
	c0.07,0,0.15,0,0.22,0.01c10.61,0.93,19.7,6.5,25.43,14.55c0.02,0.03,0.05,0.06,0.07,0.09c0.07,0.09,0.13,0.17,0.18,0.26
	C64.44,16.16,64.15,17.64,63.06,18.41z"/>
</svg>
