<?xml version="1.0" encoding="utf-8"?>
<!-- Generator: Adobe Illustrator 25.2.3, SVG Export Plug-In . SVG Version: 6.00 Build 0)  -->
<svg version="1.2" baseProfile="tiny" id="circle" xmlns="http://www.w3.org/2000/svg" xmlns:xlink="http://www.w3.org/1999/xlink"
	 x="0px" y="0px" viewBox="0 0 70 70" overflow="visible" xml:space="preserve">
<path id="circle10" d="M69.7,39.57c-0.01,0.08-0.02,0.16-0.04,0.23C67.34,56.86,52.7,70,35,70C17.22,70,2.53,56.74,0.3,39.57
	c-0.18-1.37,0.78-2.63,2.15-2.81c1.37-0.18,2.63,0.79,2.81,2.16C7.17,53.64,19.76,65,35,65s27.83-11.36,29.74-26.08
	c0.18-1.37,1.44-2.34,2.81-2.16C68.92,36.94,69.88,38.2,69.7,39.57z"/>
<path id="circle11" d="M67.55,33.24c-1.37,0.18-2.63-0.79-2.81-2.16C62.83,16.36,50.24,5,35,5S7.17,16.36,5.26,31.08
	c-0.18,1.37-1.44,2.34-2.81,2.16S0.12,31.8,0.3,30.43c0.01-0.08,0.02-0.16,0.04-0.23C2.66,13.14,17.3,0,35,0s32.34,13.14,34.66,30.2
	c0.02,0.07,0.03,0.15,0.04,0.23C69.88,31.8,68.92,33.06,67.55,33.24z"/>
</svg>
